<svg width="576" height="436" viewBox="0 0 576 436" fill="none" xmlns="http://www.w3.org/2000/svg">
<mask id="path-1-inside-1_2732_168" fill="white">
<path d="M186.2 167.692L190.705 177.38L195.578 186.902L200.839 196.252L206.507 205.429L207.38 206.718V3.91255L211.829 3.24931L216.235 2.65294L220.602 2.12208L224.935 1.65673L229.237 1.25278L233.511 0.908879L237.763 0.622296L241.994 0.393029L246.211 0.218349L250.415 0.0955278L254.612 0.0231996L258.805 0L262.996 0.0231996L267.185 0.0955278L271.365 0.218349L275.532 0.393029L279.686 0.622296L283.819 0.908879L287.929 1.25278L292.012 1.65673L296.064 2.12208L300.082 2.65294L304.06 3.24931L307.995 3.91255L369.32 65.5253V146.416L369.944 145.493L375.585 136.346L380.823 127.026L385.676 117.536L390.163 107.882L394.645 107.496L399.139 107.175L403.631 106.912L408.113 106.702L412.571 106.538L416.994 106.415L421.371 106.327L425.69 106.268L429.938 106.231L434.106 106.213L438.179 106.206L442.148 106.205L446.12 106.228L450.445 106.301L455.056 106.423L459.89 106.598L464.879 106.827L469.957 107.114L475.059 107.458L480.117 107.862L485.067 108.327L489.842 108.858L494.377 109.454L498.605 110.118L559.698 171.601L555.029 184.951L549.708 197.926L543.777 210.515L537.283 222.715L530.27 234.519L522.78 245.923L514.861 256.919L506.557 267.503L497.91 277.667L488.967 287.408L479.774 296.716L470.371 305.591L575.744 429.919V430.118L570.41 431.159L564.63 432.137L558.615 433.021L552.44 433.811L546.171 434.51L539.878 435.114L533.632 435.626L528.163 436H468.555L465.511 435.879L460.087 435.611L455.155 435.303L450.894 434.952L447.481 434.556L386.25 373.395L369.32 353.102V430.648L364.877 431.311L360.476 431.906L356.114 432.435L351.787 432.902L347.489 433.305L343.221 433.649L338.975 433.934L334.747 434.163L330.537 434.338L326.337 434.461L322.146 434.532L317.958 434.556L313.771 434.532L309.588 434.461L305.413 434.338L301.25 434.163L297.103 433.934L292.974 433.649L288.869 433.305L284.792 432.902L280.744 432.435L276.732 431.906L272.759 431.311L268.828 430.648L226.84 388.854L190.109 432.88L186.696 433.276L182.435 433.628L177.503 433.937L172.078 434.204L166.334 434.433L160.45 434.626L154.6 434.783L148.961 434.907L143.709 435.001L139.023 435.065L135.076 435.102L132.047 435.114L127.079 435.068L121.717 434.929L116.031 434.695L110.086 434.369L103.957 433.952L97.7113 433.44L91.4188 432.834L85.1494 432.137L78.9742 431.345L72.9601 430.462L67.1793 429.485L61.7014 428.415L0 367.246L105.42 242.86L96.232 233.71L87.0272 224.389L78.0735 214.637L69.416 204.461L61.101 193.864L53.1722 182.854L45.6746 171.437L38.6519 159.619L32.1492 147.404L26.2128 134.798L20.8838 121.809L16.2097 108.44L20.4375 107.777L24.9723 107.181L29.7474 106.65L34.6984 106.185L39.756 105.781L44.8571 105.437L49.9351 105.15L54.9244 104.921L59.7581 104.746L64.3694 104.623L68.6954 104.551L72.6667 104.528L76.6352 104.529L80.7101 104.536L84.8765 104.554L89.1247 104.591L93.444 104.649L97.8205 104.738L102.243 104.861L106.702 105.025L111.183 105.236L115.676 105.498L120.17 105.82L124.652 106.205L186.2 167.692Z"/>
</mask>
<path d="M186.2 167.692L190.705 177.38L195.578 186.902L200.839 196.252L206.507 205.429L207.38 206.718V3.91255L211.829 3.24931L216.235 2.65294L220.602 2.12208L224.935 1.65673L229.237 1.25278L233.511 0.908879L237.763 0.622296L241.994 0.393029L246.211 0.218349L250.415 0.0955278L254.612 0.0231996L258.805 0L262.996 0.0231996L267.185 0.0955278L271.365 0.218349L275.532 0.393029L279.686 0.622296L283.819 0.908879L287.929 1.25278L292.012 1.65673L296.064 2.12208L300.082 2.65294L304.06 3.24931L307.995 3.91255L369.32 65.5253V146.416L369.944 145.493L375.585 136.346L380.823 127.026L385.676 117.536L390.163 107.882L394.645 107.496L399.139 107.175L403.631 106.912L408.113 106.702L412.571 106.538L416.994 106.415L421.371 106.327L425.69 106.268L429.938 106.231L434.106 106.213L438.179 106.206L442.148 106.205L446.12 106.228L450.445 106.301L455.056 106.423L459.89 106.598L464.879 106.827L469.957 107.114L475.059 107.458L480.117 107.862L485.067 108.327L489.842 108.858L494.377 109.454L498.605 110.118L559.698 171.601L555.029 184.951L549.708 197.926L543.777 210.515L537.283 222.715L530.27 234.519L522.78 245.923L514.861 256.919L506.557 267.503L497.91 277.667L488.967 287.408L479.774 296.716L470.371 305.591L575.744 429.919V430.118L570.41 431.159L564.63 432.137L558.615 433.021L552.44 433.811L546.171 434.51L539.878 435.114L533.632 435.626L528.163 436H468.555L465.511 435.879L460.087 435.611L455.155 435.303L450.894 434.952L447.481 434.556L386.25 373.395L369.32 353.102V430.648L364.877 431.311L360.476 431.906L356.114 432.435L351.787 432.902L347.489 433.305L343.221 433.649L338.975 433.934L334.747 434.163L330.537 434.338L326.337 434.461L322.146 434.532L317.958 434.556L313.771 434.532L309.588 434.461L305.413 434.338L301.25 434.163L297.103 433.934L292.974 433.649L288.869 433.305L284.792 432.902L280.744 432.435L276.732 431.906L272.759 431.311L268.828 430.648L226.84 388.854L190.109 432.88L186.696 433.276L182.435 433.628L177.503 433.937L172.078 434.204L166.334 434.433L160.45 434.626L154.6 434.783L148.961 434.907L143.709 435.001L139.023 435.065L135.076 435.102L132.047 435.114L127.079 435.068L121.717 434.929L116.031 434.695L110.086 434.369L103.957 433.952L97.7113 433.44L91.4188 432.834L85.1494 432.137L78.9742 431.345L72.9601 430.462L67.1793 429.485L61.7014 428.415L0 367.246L105.42 242.86L96.232 233.71L87.0272 224.389L78.0735 214.637L69.416 204.461L61.101 193.864L53.1722 182.854L45.6746 171.437L38.6519 159.619L32.1492 147.404L26.2128 134.798L20.8838 121.809L16.2097 108.44L20.4375 107.777L24.9723 107.181L29.7474 106.65L34.6984 106.185L39.756 105.781L44.8571 105.437L49.9351 105.15L54.9244 104.921L59.7581 104.746L64.3694 104.623L68.6954 104.551L72.6667 104.528L76.6352 104.529L80.7101 104.536L84.8765 104.554L89.1247 104.591L93.444 104.649L97.8205 104.738L102.243 104.861L106.702 105.025L111.183 105.236L115.676 105.498L120.17 105.82L124.652 106.205L186.2 167.692Z" fill="#194050" stroke="#194050" stroke-width="6" stroke-linejoin="round" mask="url(#path-1-inside-1_2732_168)"/>
<path d="M109.46 245.828C111.2 243.775 111.003 240.713 109.015 238.9C72.7946 205.876 40.3302 163.224 22.8254 112.494C38.422 110.403 59.3977 109.528 72.6667 109.528C87.495 109.528 104.583 109.531 121.29 110.927C138.918 149.695 164.86 184.676 204.353 214.713C205.865 215.863 207.898 216.057 209.601 215.213C211.303 214.369 212.38 212.633 212.38 210.733V8.22071C228.415 5.93166 243.598 5 258.805 5C273.889 5 288.89 5.91675 302.995 8.14239V211.984C302.995 213.886 304.074 215.623 305.779 216.466C307.484 217.309 309.52 217.111 311.031 215.956C350.205 186.016 375.982 151.184 393.525 112.604C410.232 111.208 427.32 111.205 442.148 111.205C455.417 111.205 476.393 112.08 491.99 114.17C474.485 164.901 442.02 207.553 405.8 240.577C403.811 242.39 403.615 245.452 405.354 247.505L505.442 365.598C485.562 368.94 460.763 370.631 444.384 370.631C434.71 370.631 401.789 370.116 388.828 368.679L311.834 276.396C310.486 274.78 308.27 274.181 306.291 274.898C304.313 275.615 302.995 277.494 302.995 279.599V365.174C286.96 367.463 271.776 368.395 256.569 368.395C241.486 368.395 226.485 367.478 212.38 365.252V277.251C212.38 275.147 211.062 273.267 209.083 272.55C207.104 271.833 204.889 272.432 203.54 274.048L125.987 367.002C113.026 368.439 80.1047 368.954 70.4308 368.954C54.0519 368.954 29.2526 367.263 9.37237 363.921L109.46 245.828Z" fill="#E2735E" stroke="#194050" stroke-width="10" stroke-linejoin="round"/>
</svg>
