<svg width="400" height="358" viewBox="0 0 400 358" fill="none" xmlns="http://www.w3.org/2000/svg">
<path d="M60.2899 99.0777V0H0V0.421603C9.69698 5.69169 12.2266 8.22134 12.2266 23.61V134.914C12.2266 148.827 12.2266 150.725 3.58367 157.47V157.892H68.9329V157.47C60.2899 150.725 60.2899 148.827 60.2899 134.914V102.872H62.1871C65.9816 102.872 67.4572 104.559 69.1437 108.775L81.7919 143.136C84.5324 149.46 84.5324 155.362 82.8459 157.892H145.033V157.47C135.969 150.935 128.801 138.498 124.585 128.169L102.662 75.4677L109.407 69.9868C118.472 62.6087 125.428 57.7602 140.606 52.9117V52.4901H97.6022V52.9117C101.818 54.1765 104.77 57.5494 104.77 61.9763C104.98 65.7707 102.451 70.83 96.3374 76.3109L76.9434 93.8076C71.6733 98.4453 68.5113 99.0777 63.0304 99.0777H60.2899Z" fill="#DE4D45"/>
<path fill-rule="evenodd" clip-rule="evenodd" d="M199.091 50.3821C167.049 50.3821 140.488 71.4624 140.488 105.402C140.488 140.184 166.417 160 198.459 160C222.701 160 243.149 146.93 250.316 124.585L248.841 123.742C242.095 134.493 232.187 138.498 221.015 138.498C202.464 138.498 188.973 125.428 188.973 100.132H252.214C252.214 72.938 234.928 50.3821 199.091 50.3821ZM188.973 95.9157C189.183 71.0408 190.448 53.7549 199.091 53.7549C206.68 53.7549 207.523 71.0408 207.523 95.9157H188.973Z" fill="#DE4D45"/>
<path d="M255.957 52.9117V52.4901H314.139V78.8405C318.987 60.5006 332.69 50.3821 350.397 50.3821C375.061 50.3821 384.126 68.5112 384.126 86.8511V134.914C384.126 148.827 384.126 150.725 392.769 157.47V157.892H327.42V157.47C336.063 150.725 336.063 148.827 336.063 134.914V84.1106C336.063 77.3649 332.479 72.3056 326.155 72.3056C318.987 72.3056 314.139 77.1541 314.139 93.5968V134.914C314.139 148.827 314.139 150.725 322.782 157.47V157.892H257.433V157.47C266.076 150.725 266.076 148.827 266.076 134.914V76.1001C266.076 60.7114 265.654 59.4466 255.957 52.9117Z" fill="#DE4D45"/>
<path fill-rule="evenodd" clip-rule="evenodd" d="M200.909 307.241C232.951 307.241 259.512 286.16 259.512 252.221C259.512 217.438 233.584 197.623 201.541 197.623C177.299 197.623 156.851 210.693 149.684 233.038L151.159 233.881C157.905 223.13 167.813 219.125 178.985 219.125C197.536 219.125 211.027 232.195 211.027 257.491H147.786C147.786 284.685 165.072 307.241 200.909 307.241ZM211.027 261.707C210.817 286.582 209.552 303.868 200.909 303.868C193.32 303.868 192.477 286.582 192.477 261.707H211.027Z" fill="#DE4D45"/>
<path d="M339.71 258.545L339.71 357.623H400V357.201C390.303 351.931 387.773 349.401 387.773 334.013V222.708C387.773 208.795 387.773 206.898 396.416 200.152V199.731H331.067V200.152C339.71 206.898 339.71 208.795 339.71 222.708V254.751H337.813C334.018 254.751 332.543 253.064 330.856 248.848L318.208 214.487C315.468 208.163 315.468 202.26 317.154 199.731H254.967V200.152C264.032 206.687 271.199 219.125 275.415 229.454L297.339 282.155L290.593 287.636C281.528 295.014 274.572 299.863 259.394 304.711V305.133L302.398 305.133V304.711C298.182 303.446 295.23 300.073 295.23 295.646C295.02 291.852 297.549 286.793 303.663 281.312L323.057 263.815C328.327 259.177 331.489 258.545 336.97 258.545H339.71Z" fill="#DE4D45"/>
<path d="M144.043 304.711V305.133H85.8611V278.782C81.0126 297.122 67.3103 307.241 49.6028 307.241C24.9387 307.241 15.8741 289.112 15.8741 270.772L15.8741 222.708C15.8741 208.795 15.8742 206.898 7.2312 200.152V199.731L72.5804 199.731V200.152C63.9374 206.898 63.9374 208.795 63.9374 222.708L63.9374 273.512C63.9374 280.258 67.5211 285.317 73.8452 285.317C81.0126 285.317 85.8611 280.469 85.8611 264.026L85.8611 222.708C85.8611 208.795 85.8611 206.898 77.2181 200.152V199.731H142.567V200.152C133.924 206.898 133.924 208.795 133.924 222.708V281.523C133.924 296.911 134.346 298.176 144.043 304.711Z" fill="#DE4D45"/>
</svg>
